<svg width="48" height="48" viewBox="0 0 64 64" fill="none" xmlns="http://www.w3.org/2000/svg">
  <defs>
    <linearGradient id="diamond-fill" x1="16" y1="12" x2="48" y2="53" gradientUnits="userSpaceOnUse">
      <stop stop-color="#F8FDFF"/>
      <stop offset="0.36" stop-color="#8BE8F7"/>
      <stop offset="0.7" stop-color="#35A7F4"/>
      <stop offset="1" stop-color="#2357D9"/>
    </linearGradient>
    <linearGradient id="diamond-soft" x1="19" y1="13" x2="40" y2="43" gradientUnits="userSpaceOnUse">
      <stop stop-color="#FFFFFF" stop-opacity="0.9"/>
      <stop offset="0.58" stop-color="#CFFAFE" stop-opacity="0.28"/>
      <stop offset="1" stop-color="#38BDF8" stop-opacity="0"/>
    </linearGradient>
  </defs>
  <path d="M18 14H46L54 28L32 54L10 28L18 14Z" fill="url(#diamond-fill)"/>
  <path d="M18 14H46L39 28H25L18 14Z" fill="url(#diamond-soft)"/>
  <path d="M10 28H25L32 54L10 28Z" fill="#0EA5E9" fill-opacity="0.52"/>
  <path d="M39 28H54L32 54L39 28Z" fill="#1D4ED8" fill-opacity="0.5"/>
  <path d="M23 18L32 15L28 25L16 28L23 18Z" fill="#FFFFFF" fill-opacity="0.42"/>
  <path d="M18 14H46L54 28L32 54L10 28L18 14Z" stroke="#F0FBFF" stroke-opacity="0.34" stroke-width="1.25" stroke-linejoin="round"/>
</svg>
