<svg xmlns="http://www.w3.org/2000/svg" viewBox="0 0 24 24" aria-hidden="true">
  <path fill="#1877F2" d="M24 12.07C24 5.41 18.63 0 12 0S0 5.4 0 12.07C0 18.1 4.39 23.1 10.13 24v-8.44H7.08v-3.49h3.05V9.41c0-3.03 1.79-4.7 4.53-4.7 1.31 0 2.68.24 2.68.24v2.96h-1.51c-1.49 0-1.96.93-1.96 1.89v2.27h3.33l-.53 3.49h-2.8V24C19.61 23.1 24 18.1 24 12.07Z"/>
  <path fill="#fff" d="m16.67 15.56.53-3.49h-3.33V9.8c0-.96.47-1.89 1.96-1.89h1.51V4.95s-1.37-.24-2.68-.24c-2.74 0-4.53 1.67-4.53 4.7v2.66H7.08v3.49h3.05V24a12.2 12.2 0 0 0 3.74 0v-8.44h2.8Z"/>
</svg>
